<?xml version="1.0" encoding="utf-8"?>
<!-- Generator: Adobe Illustrator 17.0.0, SVG Export Plug-In . SVG Version: 6.00 Build 0)  -->
<!DOCTYPE svg PUBLIC "-//W3C//DTD SVG 1.1//EN" "http://www.w3.org/Graphics/SVG/1.1/DTD/svg11.dtd">
<svg version="1.1" id="Layer_1" xmlns="http://www.w3.org/2000/svg" xmlns:xlink="http://www.w3.org/1999/xlink" x="0px" y="0px"
	 width="24.039px" height="24.038px" viewBox="0 0 24.039 24.038" enable-background="new 0 0 24.039 24.038" xml:space="preserve">
<g opacity="1">
	<path fill="#FFFFFF" d="M13.274,13.264l-5,5c-0.313,0.313-0.625,0.313-0.938,0.313c-0.311,0-0.624,0-0.936,0.295l-0.018,0.017
		l-0.52,0.538c-0.122,0.122-0.313,0.122-0.435,0L4.61,18.611c-0.121-0.122-0.121-0.313,0-0.435l0.538-0.537
		c0.313-0.313,0.313-0.625,0.313-0.938c0-0.313,0-0.625,0.313-0.938l5-4.999L13.274,13.264z M12.648,8.264l-0.833-0.85
		c-0.122-0.121-0.33-0.121-0.452,0l-0.816,0.833c-0.122,0.121-0.122,0.313,0,0.434l4.809,4.808c0.122,0.122,0.313,0.122,0.435,0
		l0.833-0.815c0.122-0.121,0.122-0.33,0-0.452l-0.85-0.833l3.107-3.107c0.851-0.85,0.851-2.257,0-3.125
		c-0.868-0.85-2.275-0.85-3.124,0L12.648,8.264z"/>
</g>
</svg>
